<?xml version="1.0" encoding="UTF-8" standalone="no"?>
<svg width="143px" height="65px" viewBox="0 0 143 65" version="1.1" xmlns="http://www.w3.org/2000/svg" xmlns:xlink="http://www.w3.org/1999/xlink">
    <!-- Generator: Sketch 3.7.1 (28215) - http://www.bohemiancoding.com/sketch -->
    <title>logo</title>
    <desc>Created with Sketch.</desc>
    <defs></defs>
    <g id="Perldoc" stroke="none" stroke-width="1" fill="none" fill-rule="evenodd">
        <g id="Home" transform="translate(-38.000000, 0.000000)">
            <g id="Group-7">
                <g id="logo" transform="translate(38.000000, 0.000000)">
                    <g id="Group" transform="translate(76.000000, 23.000000)">
                        <g id="logo">
                            <path d="M2.67270318,33.6955997 C2.67270318,33.8774172 2.63634023,34.0478685 2.56361325,34.2069588 C2.49088627,34.366049 2.39543354,34.5046828 2.2772522,34.6228641 C2.15907085,34.7410454 2.01816444,34.8342255 1.85452874,34.902407 C1.69089303,34.9705886 1.52271441,35.0046788 1.34998783,35.0046788 C1.16817038,35.0046788 0.99544639,34.9728613 0.831810683,34.9092252 C0.668174976,34.845589 0.524995881,34.7546817 0.402269101,34.6365003 C0.279542321,34.518319 0.181816906,34.381958 0.109089926,34.2274131 C0.0363629449,34.0728683 0,33.9046897 0,33.7228722 C0,33.5410548 0.0363629449,33.3706035 0.109089926,33.2115132 C0.181816906,33.0524229 0.279542321,32.9137892 0.402269101,32.7956078 C0.524995881,32.6774265 0.668174976,32.5842465 0.831810683,32.5160649 C0.99544639,32.4478834 1.16817038,32.4137931 1.34998783,32.4137931 C1.52271441,32.4137931 1.69089303,32.4478834 1.85452874,32.5160649 C2.01816444,32.5842465 2.15907085,32.6751538 2.2772522,32.7887897 C2.39543354,32.9024256 2.49088627,33.0387867 2.56361325,33.1978769 C2.63634023,33.3569672 2.67270318,33.5228732 2.67270318,33.6955997 L2.67270318,33.6955997 Z M2.67270318,38.072833 C2.67270318,38.2546504 2.63634023,38.4251018 2.56361325,38.584192 C2.49088627,38.7432823 2.39543354,38.8796433 2.2772522,38.9932792 C2.15907085,39.1069152 2.01816444,39.1978225 1.85452874,39.2660041 C1.69089303,39.3341856 1.52271441,39.3682759 1.34998783,39.3682759 C1.16817038,39.3682759 0.99544639,39.3364583 0.831810683,39.2728222 C0.668174976,39.2091861 0.524995881,39.1182787 0.402269101,39.0000974 C0.279542321,38.881916 0.181816906,38.745555 0.109089926,38.5910101 C0.0363629449,38.4364653 0,38.2682867 0,38.0864692 C0,37.9046518 0.0363629449,37.7342005 0.109089926,37.5751102 C0.181816906,37.4160199 0.279542321,37.2773862 0.402269101,37.1592049 C0.524995881,37.0410235 0.668174976,36.9478435 0.831810683,36.8796619 C0.99544639,36.8114804 1.16817038,36.7773901 1.34998783,36.7773901 C1.52271441,36.7773901 1.69089303,36.8114804 1.85452874,36.8796619 C2.01816444,36.9478435 2.15907085,37.0387508 2.2772522,37.1523867 C2.39543354,37.2660227 2.49088627,37.4023837 2.56361325,37.561474 C2.63634023,37.7205642 2.67270318,37.8910155 2.67270318,38.072833 L2.67270318,38.072833 Z M7.86606085,33.6955997 C7.86606085,33.8774172 7.82969791,34.0478685 7.75697093,34.2069588 C7.68424395,34.366049 7.58879122,34.5046828 7.47060987,34.6228641 C7.35242853,34.7410454 7.21152212,34.8342255 7.04788641,34.902407 C6.8842507,34.9705886 6.71607208,35.0046788 6.5433455,35.0046788 C6.36152805,35.0046788 6.18880406,34.9728613 6.02516836,34.9092252 C5.86153265,34.845589 5.71835355,34.7546817 5.59562677,34.6365003 C5.47289999,34.518319 5.37517458,34.381958 5.3024476,34.2274131 C5.22972062,34.0728683 5.19335767,33.9046897 5.19335767,33.7228722 C5.19335767,33.5410548 5.22972062,33.3706035 5.3024476,33.2115132 C5.37517458,33.0524229 5.47289999,32.9137892 5.59562677,32.7956078 C5.71835355,32.6774265 5.86153265,32.5842465 6.02516836,32.5160649 C6.18880406,32.4478834 6.36152805,32.4137931 6.5433455,32.4137931 C6.71607208,32.4137931 6.8842507,32.4478834 7.04788641,32.5160649 C7.21152212,32.5842465 7.35242853,32.6751538 7.47060987,32.7887897 C7.58879122,32.9024256 7.68424395,33.0387867 7.75697093,33.1978769 C7.82969791,33.3569672 7.86606085,33.5228732 7.86606085,33.6955997 L7.86606085,33.6955997 Z M7.86606085,38.072833 C7.86606085,38.2546504 7.82969791,38.4251018 7.75697093,38.584192 C7.68424395,38.7432823 7.58879122,38.8796433 7.47060987,38.9932792 C7.35242853,39.1069152 7.21152212,39.1978225 7.04788641,39.2660041 C6.8842507,39.3341856 6.71607208,39.3682759 6.5433455,39.3682759 C6.36152805,39.3682759 6.18880406,39.3364583 6.02516836,39.2728222 C5.86153265,39.2091861 5.71835355,39.1182787 5.59562677,39.0000974 C5.47289999,38.881916 5.37517458,38.745555 5.3024476,38.5910101 C5.22972062,38.4364653 5.19335767,38.2682867 5.19335767,38.0864692 C5.19335767,37.9046518 5.22972062,37.7342005 5.3024476,37.5751102 C5.37517458,37.4160199 5.47289999,37.2773862 5.59562677,37.1592049 C5.71835355,37.0410235 5.86153265,36.9478435 6.02516836,36.8796619 C6.18880406,36.8114804 6.36152805,36.7773901 6.5433455,36.7773901 C6.71607208,36.7773901 6.8842507,36.8114804 7.04788641,36.8796619 C7.21152212,36.9478435 7.35242853,37.0387508 7.47060987,37.1523867 C7.58879122,37.2660227 7.68424395,37.4023837 7.75697093,37.561474 C7.82969791,37.7205642 7.86606085,37.8910155 7.86606085,38.072833 L7.86606085,38.072833 Z" id="Shape" fill="#61C5BA"></path>
                            <g id="Group-2" fill="#F8FAFC">
                                <path d="M20.0550445,8.09402303 C20.0550445,9.62867727 19.7687246,10.9219754 19.1960761,11.9739561 C18.6234277,13.0259368 17.8516087,13.8736968 16.8805961,14.5172615 C15.9095835,15.1608262 14.7892012,15.6311164 13.5194155,15.9281462 C12.2496298,16.2251761 10.9300683,16.3736888 9.5606916,16.3736888 L6.38624322,16.3736888 L6.38624322,26.2870106 L0,26.2870106 L0,0 L9.71007741,0 C11.1541474,0 12.5048306,0.14232467 13.7621674,0.426978279 C15.0195042,0.711631888 16.1149892,1.16954604 17.0486551,1.80073448 C17.9823211,2.43192292 18.716794,3.26111882 19.2520958,4.28834706 C19.7873976,5.31557531 20.0550445,6.58412127 20.0550445,8.09402303 L20.0550445,8.09402303 Z M13.6688013,8.13115157 C13.6688013,7.51233938 13.5443144,7.00492099 13.2953368,6.60888119 C13.0463592,6.21284138 12.7102445,5.90343993 12.2869826,5.68066754 C11.8637207,5.45789515 11.384446,5.30938245 10.8491442,5.23512499 C10.3138424,5.16086752 9.75987554,5.12373935 9.18722709,5.12373935 L6.38624322,5.12373935 L6.38624322,11.3242065 L9.07518773,11.3242065 C9.67273395,11.3242065 10.2453738,11.2747023 10.7931245,11.1756923 C11.3408752,11.0766824 11.8325986,10.9034176 12.2683093,10.6558927 C12.7040201,10.4083678 13.0463592,10.0804023 13.2953368,9.67198623 C13.5443144,9.26357018 13.6688013,8.74996377 13.6688013,8.13115157 L13.6688013,8.13115157 Z M33.9873267,14.9256755 C33.9873267,13.9603285 33.6823337,13.1311326 33.0723386,12.4380629 C32.4623436,11.7449933 31.5473646,11.3984636 30.3273745,11.3984636 C29.7298282,11.3984636 29.1820858,11.4912841 28.6841306,11.6769277 C28.1861754,11.8625714 27.7504712,12.1162806 27.3770048,12.4380629 C27.0035384,12.7598453 26.7047698,13.137315 26.4806899,13.5704836 C26.2566101,14.0036521 26.1321232,14.4553782 26.1072254,14.9256755 L33.9873267,14.9256755 Z M39.6266409,17.2647739 L39.6266409,18.0073448 C39.6266409,18.2548697 39.6141922,18.4900148 39.5892944,18.7127872 L26.1072254,18.7127872 C26.1570209,19.2325894 26.3126296,19.7028796 26.5740561,20.1236719 C26.8354825,20.5444642 27.1715972,20.9095579 27.5824103,21.218964 C27.9932233,21.5283701 28.4538249,21.7697033 28.964229,21.9429707 C29.474633,22.1162381 30.0037025,22.2028705 30.5514532,22.2028705 C31.5224658,22.2028705 32.3440795,22.0234177 33.016319,21.6645066 C33.6885585,21.3055955 34.2363009,20.8414933 34.6595628,20.2721861 L38.9170583,22.9454414 C38.0456368,24.2078183 36.8941327,25.1793389 35.4625115,25.8600323 C34.0308904,26.5407257 32.3689899,26.8810673 30.4767603,26.8810673 C29.0824858,26.8810673 27.7629243,26.6644863 26.5180364,26.2313177 C25.2731485,25.7981492 24.1838878,25.1669702 23.2502219,24.3377619 C22.3165559,23.5085536 21.5820831,22.4875288 21.0467812,21.2746569 C20.5114794,20.061785 20.2438325,18.6756664 20.2438325,17.1162597 C20.2438325,15.606358 20.5052551,14.2388035 21.028108,13.0135554 C21.550961,11.7883072 22.2605364,10.7487183 23.1568558,9.89475751 C24.0531751,9.04079668 25.111314,8.37867757 26.3313041,7.9083803 C27.5512943,7.43808303 28.8708557,7.20293792 30.290028,7.20293792 C31.6594047,7.20293792 32.9167227,7.431895 34.0620196,7.88981602 C35.2073165,8.34773705 36.1907632,9.00985616 37.0123893,9.87619324 C37.8340153,10.7425303 38.475123,11.7944953 38.9357315,13.0321196 C39.3963401,14.269744 39.6266409,15.6806147 39.6266409,17.2647739 L39.6266409,17.2647739 Z M55.6633443,12.7722198 C55.3894689,12.6979624 55.121822,12.6484581 54.8603956,12.6237056 C54.5989691,12.5989532 54.3437709,12.5865771 54.0947933,12.5865771 C53.2731673,12.5865771 52.5822648,12.7350898 52.0220652,13.0321196 C51.4618657,13.3291495 51.0137127,13.6880552 50.677593,14.1088475 C50.3414732,14.5296398 50.0987237,14.9875539 49.9493372,15.4826037 C49.7999506,15.9776534 49.7252585,16.4108155 49.7252585,16.7821028 L49.7252585,26.2870106 L43.6004404,26.2870106 L43.6004404,7.79699466 L49.5011798,7.79699466 L49.5011798,10.47025 L49.5758727,10.47025 C50.0489301,9.52965544 50.7211595,8.76233983 51.592581,8.16828012 C52.4640026,7.57422041 53.4723467,7.27719502 54.6176436,7.27719502 C54.8666212,7.27719502 55.1093707,7.28957107 55.3458994,7.31432356 C55.5824281,7.33907605 55.7753829,7.37620422 55.9247694,7.4257092 L55.6633443,12.7722198 Z M59.9993016,26.2870106 L59.9993016,0 L66.1988125,0 L66.1988125,26.2870106 L59.9993016,26.2870106 Z" id="Perl"></path>
                            </g>
                            <path d="M18.2268966,35.8731034 C18.2268966,36.4717271 18.1158632,36.9882737 17.8937932,37.4227586 C17.6717231,37.8572436 17.3788525,38.2144814 17.0151725,38.4944828 C16.6514925,38.7744842 16.2411518,38.9804591 15.784138,39.1124138 C15.3271242,39.2443685 14.8636806,39.3103448 14.3937932,39.3103448 L11.8448277,39.3103448 L11.8448277,32.4744828 L14.3165518,32.4744828 C14.7993128,32.4744828 15.2756299,32.530804 15.7455173,32.6434483 C16.2154047,32.7560925 16.6337913,32.9427573 17.0006897,33.2034483 C17.3675881,33.4641392 17.6636771,33.8133311 17.8889656,34.2510345 C18.1142541,34.6887378 18.2268966,35.2294221 18.2268966,35.8731034 L18.2268966,35.8731034 Z M16.5082759,35.8731034 C16.5082759,35.4868946 16.4455179,35.1666679 16.3200001,34.9124138 C16.1944822,34.6581596 16.0271275,34.4554031 15.8179311,34.3041379 C15.6087347,34.1528728 15.3705761,34.0450578 15.1034483,33.9806897 C14.8363206,33.9163215 14.5611509,33.8841379 14.2779311,33.8841379 L13.4572414,33.8841379 L13.4572414,37.8813793 L14.2393104,37.8813793 C14.5354038,37.8813793 14.8202286,37.8475865 15.0937932,37.78 C15.3673578,37.7124135 15.6087347,37.6013801 15.8179311,37.4468966 C16.0271275,37.292413 16.1944822,37.0864381 16.3200001,36.8289655 C16.4455179,36.571493 16.5082759,36.2528755 16.5082759,35.8731034 L16.5082759,35.8731034 Z M27.8917241,35.8634483 C27.8917241,36.4041406 27.7983917,36.8981587 27.6117241,37.3455172 C27.4250565,37.7928758 27.1659787,38.1758605 26.8344828,38.4944828 C26.5029868,38.813105 26.1087379,39.0593095 25.6517241,39.2331034 C25.1947104,39.4068974 24.6990831,39.4937931 24.1648276,39.4937931 C23.630572,39.4937931 23.136554,39.4068974 22.6827586,39.2331034 C22.2289632,39.0593095 21.8363235,38.813105 21.5048276,38.4944828 C21.1733317,38.1758605 20.9142538,37.7928758 20.7275862,37.3455172 C20.5409186,36.8981587 20.4475862,36.4041406 20.4475862,35.8634483 C20.4475862,35.3163191 20.5409186,34.8223011 20.7275862,34.3813793 C20.9142538,33.9404576 21.1733317,33.5655188 21.5048276,33.2565517 C21.8363235,32.9475847 22.2289632,32.7094261 22.6827586,32.542069 C23.136554,32.3747118 23.630572,32.2910345 24.1648276,32.2910345 C24.6990831,32.2910345 25.1947104,32.3747118 25.6517241,32.542069 C26.1087379,32.7094261 26.5029868,32.9475847 26.8344828,33.2565517 C27.1659787,33.5655188 27.4250565,33.9404576 27.6117241,34.3813793 C27.7983917,34.8223011 27.8917241,35.3163191 27.8917241,35.8634483 L27.8917241,35.8634483 Z M26.1248276,35.8634483 C26.1248276,35.5673548 26.0765522,35.290576 25.98,35.0331034 C25.8834478,34.7756309 25.7498859,34.5551733 25.5793103,34.3717241 C25.4087348,34.1882749 25.2027598,34.0434488 24.9613793,33.9372414 C24.7199988,33.831034 24.4544842,33.777931 24.1648276,33.777931 C23.875171,33.777931 23.6112656,33.831034 23.3731034,33.9372414 C23.1349413,34.0434488 22.9289664,34.1882749 22.7551724,34.3717241 C22.5813784,34.5551733 22.4478166,34.7756309 22.3544828,35.0331034 C22.261149,35.290576 22.2144828,35.5673548 22.2144828,35.8634483 C22.2144828,36.1724153 22.2627581,36.4572401 22.3593103,36.717931 C22.4558626,36.978622 22.5894244,37.2022979 22.76,37.3889655 C22.9305756,37.5756331 23.1349413,37.7220684 23.3731034,37.8282759 C23.6112656,37.9344833 23.875171,37.9875862 24.1648276,37.9875862 C24.4544842,37.9875862 24.7183896,37.9344833 24.9565517,37.8282759 C25.1947138,37.7220684 25.4006888,37.5756331 25.5744828,37.3889655 C25.7482767,37.2022979 25.8834478,36.978622 25.98,36.717931 C26.0765522,36.4572401 26.1248276,36.1724153 26.1248276,35.8634483 L26.1248276,35.8634483 Z M36.4462068,38.3641379 C36.1436766,38.7117259 35.770347,38.9868955 35.3262068,39.1896552 C34.8820667,39.3924148 34.3703477,39.4937931 33.7910344,39.4937931 C33.2632157,39.4937931 32.7756344,39.4068974 32.3282758,39.2331034 C31.8809172,39.0593095 31.493105,38.813105 31.1648275,38.4944828 C30.83655,38.1758605 30.5790813,37.794485 30.3924137,37.3503448 C30.2057461,36.9062047 30.1124137,36.4170142 30.1124137,35.8827586 C30.1124137,35.3356294 30.2073553,34.8400022 30.3972413,34.3958621 C30.5871273,33.9517219 30.8494235,33.5735648 31.1841379,33.2613793 C31.5188522,32.9491938 31.9114919,32.7094261 32.3620689,32.542069 C32.8126459,32.3747118 33.298618,32.2910345 33.8199999,32.2910345 C34.302761,32.2910345 34.7774689,32.376321 35.2441379,32.5468966 C35.7108069,32.7174721 36.088964,32.9668949 36.3786206,33.2951724 L35.2586206,34.4151724 C35.1041371,34.2027576 34.9013805,34.045058 34.6503448,33.942069 C34.399309,33.8390799 34.1418403,33.7875862 33.877931,33.7875862 C33.5882743,33.7875862 33.3227598,33.8406891 33.0813792,33.9468966 C32.8399987,34.053104 32.6324146,34.1995393 32.4586206,34.3862069 C32.2848267,34.5728745 32.1496556,34.7933321 32.0531034,35.0475862 C31.9565512,35.3018404 31.9082758,35.5802284 31.9082758,35.8827586 C31.9082758,36.1917257 31.9565512,36.4749412 32.0531034,36.7324138 C32.1496556,36.9898863 32.2832175,37.2103439 32.453793,37.3937931 C32.6243686,37.5772423 32.8287344,37.7204593 33.0668965,37.8234483 C33.3050586,37.9264373 33.5657456,37.977931 33.8489655,37.977931 C34.177243,37.977931 34.4636769,37.9135639 34.7082758,37.7848276 C34.9528747,37.6560913 35.1491946,37.4887367 35.2972413,37.2827586 L36.4462068,38.3641379 Z" id="DOC" fill="#61C5BA"></path>
                        </g>
                    </g>
                    <g id="Group-12">
                        <path d="M55,4.99933399 L55,63.001332 C55,64.1051659 54.1138045,65 52.9936907,65 L2.00630931,65 C0.898255275,65 0,64.1058759 0,63.001332 L0,4.99933399 L0,0 L55,0 L55,4.99933399 Z" id="Combined-Shape" fill="#0073A1"></path>
                        <g id="Group-3" transform="translate(12.000000, 11.000000)" fill="#F8FAFC">
                            <g id="Group">
                                <path d="M17.3796113,36.1036904 C17.1638572,36.1316177 17.0389995,36.3392949 17.0389995,36.560174 C17.0389995,37.4213488 17.6488044,38.2038195 18.350005,38.3795073 C18.5612642,38.4323152 18.7625348,38.4160666 18.8584255,38.2175293 C18.955315,38.0194997 18.8379488,37.7996361 18.6426714,37.7011291 C18.1811975,37.4685712 17.9259884,37.2507387 17.8206085,36.5073661 C17.7891444,36.2880103 17.5958647,36.0747476 17.3796113,36.1036904 M13.6963101,36.5073661 C13.5909302,37.2507387 13.3352217,37.4685712 12.8742472,37.7011291 C12.6789699,37.7996361 12.5621031,38.0194997 12.6579938,38.2175293 C12.7543839,38.4160666 12.9561539,38.4323152 13.1664142,38.3795073 C13.8681143,38.2038195 14.4774197,37.4213488 14.4774197,36.560174 C14.4774197,36.3392949 14.352562,36.1316177 14.1373074,36.1036904 C13.9210539,36.0747476 13.7277742,36.2880103 13.6963101,36.5073661 M25.7455743,23.7562921 C25.7455743,20.7335483 23.9735943,17.0141465 19.0357233,12.9489546 C18.1677128,12.2345248 17.5034701,11.3748734 17.2792257,10.398943 C17.2597479,10.3136379 17.2762291,10.1831415 17.3861039,10.155722 C17.5024712,10.1257637 17.590371,10.1983745 17.6488044,10.3141457 C18.2446252,11.4957222 18.6731367,11.8780716 19.596584,12.5767606 C22.5701941,14.8246502 28.124862,17.9794138 28.124862,24.1670766 C28.124862,28.9568536 24.0125499,32.9925949 22.2550534,33.8745882 C22.016825,33.9944215 21.7711051,34.0396129 21.6832053,33.8781426 C21.5938072,33.7115946 21.6941928,33.5359068 21.9234314,33.2962403 C24.0609947,31.0524128 25.7455743,28.2739054 25.7455743,23.7562921 M13.7956968,23.8603846 C13.7956968,26.6353376 13.9859799,28.8080775 15.4013664,32.749374 C15.8178916,33.9070854 16.2139401,34.008639 16.5295803,34.0517993 C17.1189085,34.1315189 17.6537987,34.3046678 18.1607208,34.5423033 C18.6681424,34.7804466 19.150093,35.0830764 19.6320436,35.5390522 C19.7743813,35.6715797 19.8897498,35.7421595 20.0230978,35.7538382 C20.1559463,35.7645013 20.3057755,35.7208332 20.5165353,35.6670098 C25.1412632,34.218855 30.4881679,30.5111319 30.4881679,23.5643558 C30.4881679,13.9502734 17.1628584,12.4091971 17.0889426,6.95576707 C17.0649699,5.1724853 17.443039,4.48649052 17.5189524,4.23463751 C17.5479194,4.13816156 17.5124598,4.05488758 17.4445372,4.03000694 C17.3501449,3.99497094 17.2892143,4.0609808 17.2582496,4.11581976 C17.1363885,4.32908239 17.0729608,4.55351591 16.7398406,4.43317486 C16.4726452,4.33568337 16.3847454,3.38514138 16.2828615,3.09520576 C16.2454042,2.98755891 16.1809777,2.9383054 16.0980722,2.95709282 C16.0141678,2.97638801 15.9657231,3.04950663 15.9827037,3.15156803 C16.0286513,3.4150997 16.437685,4.95312945 16.437685,7.05224302 C16.437685,15.8015962 13.7956968,18.6730251 13.7956968,23.8603846 M15.5337155,5.10952205 C15.4593004,2.73469037 15.3084723,0.676198257 15.2765087,0.245610859 C15.264023,0.0653531631 15.1087,-0.00573437907 15.0073156,0.00035883883 C14.9029346,0.00645205673 14.7615957,0.0902338028 14.7710849,0.262874977 C14.8355115,1.80192026 14.9778492,4.13511495 14.928905,6.32562679 C14.8979403,7.69406197 14.7141498,8.90356573 14.5518348,9.59413042 C13.2398305,15.1699326 7.64271104,17.3843095 7.41347237,23.3394145 C7.31009022,26.0376945 7.79603626,30.3384908 13.3756756,34.2609998 C13.5664581,34.3955583 13.866616,34.5158994 14.0638911,34.3224397 C14.1952413,34.1934666 14.2796451,33.9781729 13.9994645,33.568404 C12.1540682,30.8691085 10.1863114,28.0819691 10.1863114,24.0249015 C10.1863114,20.2511685 11.6566353,18.06218 13.0730206,15.7162911 C14.2686577,13.7354875 15.6440897,11.5652864 15.5661785,7.09997323 C15.5546916,6.42667265 15.555191,5.80668773 15.5337155,5.10952205 M3.6727367,23.3724194 C4.01334841,17.2284247 11.8723893,12.3269386 13.5519747,8.93809396 C14.1138342,7.8052632 14.2946281,7.19594141 14.2946281,5.32583128 C14.2946281,4.44333022 14.1353097,2.47572861 14.1243222,2.32085932 C14.1098387,2.11927536 13.977989,2.05732765 13.8641188,2.06494417 C13.7482509,2.07256069 13.6129052,2.14669484 13.6223944,2.33964674 C13.6318836,2.53361418 13.747252,4.31689595 13.7432566,5.54671043 C13.7382623,6.99283415 13.3492058,7.60215594 13.2697963,7.81592633 C11.6146831,12.2878405 0.927366341,14.6504857 0.927366341,23.5643558 C0.927366341,30.7325188 6.74773129,34.470708 11.460359,35.7228643 C11.658633,35.7751644 11.860403,35.734543 11.9378147,35.554793 C12.0177237,35.3725043 11.9208341,35.1587339 11.7460334,35.0790143 C6.35168278,32.2309427 3.39705097,28.3353454 3.6727367,23.3724194 M15.7839303,39 C16.0196616,39 16.1819765,38.805017 16.1819765,38.566366 L16.2104441,36.0742399 C16.2104441,35.8360966 16.0196616,35.6416214 15.7839303,35.6416214 C15.5486984,35.6416214 15.3574165,35.8360966 15.3574165,36.0742399 L15.3858841,38.566366 C15.3858841,38.805017 15.5486984,39 15.7839303,39" id="Fill-1"></path>
                            </g>
                        </g>
                    </g>
                </g>
            </g>
        </g>
    </g>
</svg>